<mxfile host="app.diagrams.net" modified="2023-02-14T08:08:46.677Z" agent="5.0 (Windows NT 10.0; Win64; x64) AppleWebKit/537.36 (KHTML, like Gecko) Chrome/108.0.0.0 YaBrowser/23.1.2.931 Yowser/2.5 Safari/537.36" etag="5GJvUOtAw2ZobdSTjDKm" version="20.8.20" type="github">
  <diagram name="Страница 1" id="q8zAxuQCWaOFKIoioaBs">
    <mxGraphModel dx="2288" dy="1848" grid="1" gridSize="10" guides="1" tooltips="1" connect="1" arrows="1" fold="1" page="1" pageScale="1" pageWidth="827" pageHeight="1169" math="0" shadow="0">
      <root>
        <mxCell id="0" />
        <mxCell id="1" parent="0" />
        <mxCell id="op2JBS9SiDomK1z1VzM1-1" value="" style="rounded=0;whiteSpace=wrap;html=1;" vertex="1" parent="1">
          <mxGeometry x="80" y="80" width="120" height="60" as="geometry" />
        </mxCell>
        <mxCell id="op2JBS9SiDomK1z1VzM1-2" value="" style="rounded=0;whiteSpace=wrap;html=1;" vertex="1" parent="1">
          <mxGeometry x="280" y="160" width="120" height="60" as="geometry" />
        </mxCell>
        <mxCell id="op2JBS9SiDomK1z1VzM1-3" value="" style="rounded=0;whiteSpace=wrap;html=1;" vertex="1" parent="1">
          <mxGeometry x="480" y="240" width="120" height="60" as="geometry" />
        </mxCell>
        <mxCell id="op2JBS9SiDomK1z1VzM1-4" value="" style="rounded=0;whiteSpace=wrap;html=1;" vertex="1" parent="1">
          <mxGeometry x="680" y="320" width="120" height="60" as="geometry" />
        </mxCell>
        <mxCell id="op2JBS9SiDomK1z1VzM1-9" style="edgeStyle=orthogonalEdgeStyle;rounded=0;orthogonalLoop=1;jettySize=auto;html=1;exitX=1;exitY=0.5;exitDx=0;exitDy=0;entryX=0;entryY=0.5;entryDx=0;entryDy=0;" edge="1" parent="1" source="op2JBS9SiDomK1z1VzM1-5" target="op2JBS9SiDomK1z1VzM1-6">
          <mxGeometry relative="1" as="geometry" />
        </mxCell>
        <mxCell id="op2JBS9SiDomK1z1VzM1-5" value="Написание кода" style="text;html=1;strokeColor=none;fillColor=none;align=center;verticalAlign=middle;whiteSpace=wrap;rounded=0;" vertex="1" parent="1">
          <mxGeometry x="80" y="80" width="120" height="60" as="geometry" />
        </mxCell>
        <mxCell id="op2JBS9SiDomK1z1VzM1-10" style="edgeStyle=orthogonalEdgeStyle;rounded=0;orthogonalLoop=1;jettySize=auto;html=1;exitX=1;exitY=0.5;exitDx=0;exitDy=0;entryX=0;entryY=0.5;entryDx=0;entryDy=0;" edge="1" parent="1" source="op2JBS9SiDomK1z1VzM1-6" target="op2JBS9SiDomK1z1VzM1-8">
          <mxGeometry relative="1" as="geometry" />
        </mxCell>
        <mxCell id="op2JBS9SiDomK1z1VzM1-6" value="Создание базы данных" style="text;html=1;strokeColor=none;fillColor=none;align=center;verticalAlign=middle;whiteSpace=wrap;rounded=0;" vertex="1" parent="1">
          <mxGeometry x="280" y="160" width="120" height="60" as="geometry" />
        </mxCell>
        <mxCell id="op2JBS9SiDomK1z1VzM1-11" style="edgeStyle=orthogonalEdgeStyle;rounded=0;orthogonalLoop=1;jettySize=auto;html=1;exitX=1;exitY=0.5;exitDx=0;exitDy=0;entryX=0;entryY=0.5;entryDx=0;entryDy=0;" edge="1" parent="1" source="op2JBS9SiDomK1z1VzM1-8" target="op2JBS9SiDomK1z1VzM1-4">
          <mxGeometry relative="1" as="geometry" />
        </mxCell>
        <mxCell id="op2JBS9SiDomK1z1VzM1-8" value="Разработка интерфейса" style="text;html=1;strokeColor=none;fillColor=none;align=center;verticalAlign=middle;whiteSpace=wrap;rounded=0;" vertex="1" parent="1">
          <mxGeometry x="480" y="240" width="120" height="60" as="geometry" />
        </mxCell>
        <mxCell id="op2JBS9SiDomK1z1VzM1-15" style="edgeStyle=orthogonalEdgeStyle;rounded=0;orthogonalLoop=1;jettySize=auto;html=1;exitX=1;exitY=0.5;exitDx=0;exitDy=0;entryX=0;entryY=0.5;entryDx=0;entryDy=0;" edge="1" parent="1" source="op2JBS9SiDomK1z1VzM1-12" target="op2JBS9SiDomK1z1VzM1-14">
          <mxGeometry relative="1" as="geometry" />
        </mxCell>
        <mxCell id="op2JBS9SiDomK1z1VzM1-12" value="Тестирование программы" style="text;html=1;strokeColor=none;fillColor=none;align=center;verticalAlign=middle;whiteSpace=wrap;rounded=0;" vertex="1" parent="1">
          <mxGeometry x="680" y="320" width="120" height="60" as="geometry" />
        </mxCell>
        <mxCell id="op2JBS9SiDomK1z1VzM1-13" value="" style="rounded=0;whiteSpace=wrap;html=1;" vertex="1" parent="1">
          <mxGeometry x="880" y="400" width="120" height="60" as="geometry" />
        </mxCell>
        <mxCell id="op2JBS9SiDomK1z1VzM1-14" value="Написание руководства пользователя" style="text;html=1;strokeColor=none;fillColor=none;align=center;verticalAlign=middle;whiteSpace=wrap;rounded=0;" vertex="1" parent="1">
          <mxGeometry x="880" y="400" width="120" height="60" as="geometry" />
        </mxCell>
        <mxCell id="op2JBS9SiDomK1z1VzM1-18" value="" style="endArrow=classic;html=1;rounded=0;exitX=1;exitY=0.25;exitDx=0;exitDy=0;" edge="1" parent="1" source="op2JBS9SiDomK1z1VzM1-12">
          <mxGeometry width="50" height="50" relative="1" as="geometry">
            <mxPoint x="510" y="280" as="sourcePoint" />
            <mxPoint x="1070" y="335" as="targetPoint" />
          </mxGeometry>
        </mxCell>
        <mxCell id="op2JBS9SiDomK1z1VzM1-19" value="" style="endArrow=classic;html=1;rounded=0;exitX=1;exitY=0.75;exitDx=0;exitDy=0;" edge="1" parent="1" source="op2JBS9SiDomK1z1VzM1-14">
          <mxGeometry width="50" height="50" relative="1" as="geometry">
            <mxPoint x="510" y="280" as="sourcePoint" />
            <mxPoint x="1080" y="445" as="targetPoint" />
          </mxGeometry>
        </mxCell>
        <mxCell id="op2JBS9SiDomK1z1VzM1-20" value="Готовое окно" style="text;html=1;strokeColor=none;fillColor=none;align=center;verticalAlign=middle;whiteSpace=wrap;rounded=0;" vertex="1" parent="1">
          <mxGeometry x="240" y="80" width="60" height="30" as="geometry" />
        </mxCell>
        <mxCell id="op2JBS9SiDomK1z1VzM1-21" value="Готовая&lt;br&gt;БД" style="text;html=1;strokeColor=none;fillColor=none;align=center;verticalAlign=middle;whiteSpace=wrap;rounded=0;" vertex="1" parent="1">
          <mxGeometry x="440" y="160" width="60" height="30" as="geometry" />
        </mxCell>
        <mxCell id="op2JBS9SiDomK1z1VzM1-22" value="Бета-версия программы" style="text;html=1;strokeColor=none;fillColor=none;align=center;verticalAlign=middle;whiteSpace=wrap;rounded=0;" vertex="1" parent="1">
          <mxGeometry x="640" y="240" width="80" height="30" as="geometry" />
        </mxCell>
        <mxCell id="op2JBS9SiDomK1z1VzM1-23" value="Готовая программа" style="text;html=1;strokeColor=none;fillColor=none;align=center;verticalAlign=middle;whiteSpace=wrap;rounded=0;" vertex="1" parent="1">
          <mxGeometry x="850" y="340" width="60" height="30" as="geometry" />
        </mxCell>
        <mxCell id="op2JBS9SiDomK1z1VzM1-24" value="Правовой справочник" style="text;html=1;strokeColor=none;fillColor=none;align=center;verticalAlign=middle;whiteSpace=wrap;rounded=0;" vertex="1" parent="1">
          <mxGeometry x="1070" y="320" width="90" height="50" as="geometry" />
        </mxCell>
        <mxCell id="op2JBS9SiDomK1z1VzM1-25" value="Руководство пользователя" style="text;html=1;strokeColor=none;fillColor=none;align=center;verticalAlign=middle;whiteSpace=wrap;rounded=0;" vertex="1" parent="1">
          <mxGeometry x="1095" y="440" width="60" height="30" as="geometry" />
        </mxCell>
        <mxCell id="op2JBS9SiDomK1z1VzM1-26" value="" style="endArrow=none;html=1;rounded=0;" edge="1" parent="1">
          <mxGeometry width="50" height="50" relative="1" as="geometry">
            <mxPoint x="120" y="40" as="sourcePoint" />
            <mxPoint x="520" y="40" as="targetPoint" />
          </mxGeometry>
        </mxCell>
        <mxCell id="op2JBS9SiDomK1z1VzM1-27" value="" style="endArrow=classic;html=1;rounded=0;entryX=0.343;entryY=0.003;entryDx=0;entryDy=0;entryPerimeter=0;" edge="1" parent="1" target="op2JBS9SiDomK1z1VzM1-8">
          <mxGeometry width="50" height="50" relative="1" as="geometry">
            <mxPoint x="520" y="40" as="sourcePoint" />
            <mxPoint x="690" y="180" as="targetPoint" />
          </mxGeometry>
        </mxCell>
        <mxCell id="op2JBS9SiDomK1z1VzM1-28" value="" style="endArrow=classic;html=1;rounded=0;entryX=0.663;entryY=0.017;entryDx=0;entryDy=0;entryPerimeter=0;" edge="1" parent="1" target="op2JBS9SiDomK1z1VzM1-5">
          <mxGeometry width="50" height="50" relative="1" as="geometry">
            <mxPoint x="160" y="40" as="sourcePoint" />
            <mxPoint x="690" y="180" as="targetPoint" />
          </mxGeometry>
        </mxCell>
        <mxCell id="op2JBS9SiDomK1z1VzM1-29" value="" style="endArrow=classic;html=1;rounded=0;entryX=0.417;entryY=0.003;entryDx=0;entryDy=0;entryPerimeter=0;" edge="1" parent="1" target="op2JBS9SiDomK1z1VzM1-6">
          <mxGeometry width="50" height="50" relative="1" as="geometry">
            <mxPoint x="330" y="40" as="sourcePoint" />
            <mxPoint x="690" y="180" as="targetPoint" />
          </mxGeometry>
        </mxCell>
        <mxCell id="op2JBS9SiDomK1z1VzM1-30" value="" style="endArrow=none;html=1;rounded=0;" edge="1" parent="1">
          <mxGeometry width="50" height="50" relative="1" as="geometry">
            <mxPoint x="120" y="40" as="sourcePoint" />
            <mxPoint x="120" y="-10" as="targetPoint" />
          </mxGeometry>
        </mxCell>
        <mxCell id="op2JBS9SiDomK1z1VzM1-31" value="" style="endArrow=none;html=1;rounded=0;" edge="1" parent="1">
          <mxGeometry width="50" height="50" relative="1" as="geometry">
            <mxPoint x="280" y="40" as="sourcePoint" />
            <mxPoint x="280" y="-10" as="targetPoint" />
          </mxGeometry>
        </mxCell>
        <mxCell id="op2JBS9SiDomK1z1VzM1-32" value="Python" style="text;html=1;strokeColor=none;fillColor=none;align=center;verticalAlign=middle;whiteSpace=wrap;rounded=0;" vertex="1" parent="1">
          <mxGeometry x="90" y="-50" width="60" height="30" as="geometry" />
        </mxCell>
        <mxCell id="op2JBS9SiDomK1z1VzM1-33" value="Техническое задание" style="text;html=1;strokeColor=none;fillColor=none;align=center;verticalAlign=middle;whiteSpace=wrap;rounded=0;" vertex="1" parent="1">
          <mxGeometry x="250" y="-50" width="60" height="30" as="geometry" />
        </mxCell>
        <mxCell id="op2JBS9SiDomK1z1VzM1-37" value="Потребность&amp;nbsp;&lt;br&gt;создать&amp;nbsp;" style="text;html=1;strokeColor=none;fillColor=none;align=center;verticalAlign=middle;whiteSpace=wrap;rounded=0;" vertex="1" parent="1">
          <mxGeometry x="-30" y="80" width="60" height="30" as="geometry" />
        </mxCell>
        <mxCell id="op2JBS9SiDomK1z1VzM1-38" value="" style="endArrow=classic;html=1;rounded=0;entryX=0;entryY=0.25;entryDx=0;entryDy=0;" edge="1" parent="1" target="op2JBS9SiDomK1z1VzM1-5">
          <mxGeometry width="50" height="50" relative="1" as="geometry">
            <mxPoint x="40" y="95" as="sourcePoint" />
            <mxPoint x="460" y="150" as="targetPoint" />
          </mxGeometry>
        </mxCell>
        <mxCell id="op2JBS9SiDomK1z1VzM1-42" style="edgeStyle=orthogonalEdgeStyle;rounded=0;orthogonalLoop=1;jettySize=auto;html=1;entryX=0.25;entryY=1;entryDx=0;entryDy=0;" edge="1" parent="1" target="op2JBS9SiDomK1z1VzM1-6">
          <mxGeometry relative="1" as="geometry">
            <mxPoint x="310" y="570" as="sourcePoint" />
          </mxGeometry>
        </mxCell>
        <mxCell id="op2JBS9SiDomK1z1VzM1-41" value="СУБД" style="text;html=1;strokeColor=none;fillColor=none;align=center;verticalAlign=middle;whiteSpace=wrap;rounded=0;rotation=0;" vertex="1" parent="1">
          <mxGeometry x="280" y="570" width="60" height="30" as="geometry" />
        </mxCell>
        <mxCell id="op2JBS9SiDomK1z1VzM1-43" value="" style="endArrow=none;html=1;rounded=0;" edge="1" parent="1">
          <mxGeometry width="50" height="50" relative="1" as="geometry">
            <mxPoint x="160" y="520" as="sourcePoint" />
            <mxPoint x="960" y="520" as="targetPoint" />
          </mxGeometry>
        </mxCell>
        <mxCell id="op2JBS9SiDomK1z1VzM1-44" value="" style="endArrow=classic;html=1;rounded=0;entryX=0.665;entryY=1.053;entryDx=0;entryDy=0;entryPerimeter=0;" edge="1" parent="1" target="op2JBS9SiDomK1z1VzM1-14">
          <mxGeometry width="50" height="50" relative="1" as="geometry">
            <mxPoint x="960" y="520" as="sourcePoint" />
            <mxPoint x="460" y="250" as="targetPoint" />
          </mxGeometry>
        </mxCell>
        <mxCell id="op2JBS9SiDomK1z1VzM1-45" value="" style="endArrow=classic;html=1;rounded=0;" edge="1" parent="1">
          <mxGeometry width="50" height="50" relative="1" as="geometry">
            <mxPoint x="750" y="520" as="sourcePoint" />
            <mxPoint x="750" y="380" as="targetPoint" />
          </mxGeometry>
        </mxCell>
        <mxCell id="op2JBS9SiDomK1z1VzM1-46" value="" style="endArrow=classic;html=1;rounded=0;entryX=0.665;entryY=1.067;entryDx=0;entryDy=0;entryPerimeter=0;" edge="1" parent="1" target="op2JBS9SiDomK1z1VzM1-8">
          <mxGeometry width="50" height="50" relative="1" as="geometry">
            <mxPoint x="560" y="520" as="sourcePoint" />
            <mxPoint x="460" y="250" as="targetPoint" />
          </mxGeometry>
        </mxCell>
        <mxCell id="op2JBS9SiDomK1z1VzM1-47" value="" style="endArrow=classic;html=1;rounded=0;entryX=0.5;entryY=1;entryDx=0;entryDy=0;" edge="1" parent="1" target="op2JBS9SiDomK1z1VzM1-6">
          <mxGeometry width="50" height="50" relative="1" as="geometry">
            <mxPoint x="340" y="520" as="sourcePoint" />
            <mxPoint x="460" y="250" as="targetPoint" />
          </mxGeometry>
        </mxCell>
        <mxCell id="op2JBS9SiDomK1z1VzM1-48" value="" style="endArrow=classic;html=1;rounded=0;entryX=0.652;entryY=1.013;entryDx=0;entryDy=0;entryPerimeter=0;" edge="1" parent="1" target="op2JBS9SiDomK1z1VzM1-5">
          <mxGeometry width="50" height="50" relative="1" as="geometry">
            <mxPoint x="160" y="520" as="sourcePoint" />
            <mxPoint x="460" y="250" as="targetPoint" />
          </mxGeometry>
        </mxCell>
        <mxCell id="op2JBS9SiDomK1z1VzM1-49" value="" style="endArrow=none;html=1;rounded=0;" edge="1" parent="1">
          <mxGeometry width="50" height="50" relative="1" as="geometry">
            <mxPoint x="460" y="600" as="sourcePoint" />
            <mxPoint x="460" y="520" as="targetPoint" />
          </mxGeometry>
        </mxCell>
        <mxCell id="op2JBS9SiDomK1z1VzM1-50" value="Студент-разработчик" style="text;html=1;strokeColor=none;fillColor=none;align=center;verticalAlign=middle;whiteSpace=wrap;rounded=0;" vertex="1" parent="1">
          <mxGeometry x="430" y="600" width="60" height="30" as="geometry" />
        </mxCell>
        <mxCell id="op2JBS9SiDomK1z1VzM1-51" value="" style="endArrow=none;html=1;rounded=0;" edge="1" parent="1">
          <mxGeometry width="50" height="50" relative="1" as="geometry">
            <mxPoint x="560" y="600" as="sourcePoint" />
            <mxPoint x="560" y="520" as="targetPoint" />
          </mxGeometry>
        </mxCell>
        <mxCell id="op2JBS9SiDomK1z1VzM1-52" value="Преподаватели" style="text;html=1;strokeColor=none;fillColor=none;align=center;verticalAlign=middle;whiteSpace=wrap;rounded=0;" vertex="1" parent="1">
          <mxGeometry x="530" y="600" width="60" height="30" as="geometry" />
        </mxCell>
        <mxCell id="op2JBS9SiDomK1z1VzM1-53" value="" style="endArrow=none;html=1;rounded=0;" edge="1" parent="1">
          <mxGeometry width="50" height="50" relative="1" as="geometry">
            <mxPoint x="120" y="480" as="sourcePoint" />
            <mxPoint x="520" y="480" as="targetPoint" />
          </mxGeometry>
        </mxCell>
        <mxCell id="op2JBS9SiDomK1z1VzM1-54" value="" style="endArrow=classic;html=1;rounded=0;entryX=0.338;entryY=1.027;entryDx=0;entryDy=0;entryPerimeter=0;" edge="1" parent="1" target="op2JBS9SiDomK1z1VzM1-8">
          <mxGeometry width="50" height="50" relative="1" as="geometry">
            <mxPoint x="520" y="480" as="sourcePoint" />
            <mxPoint x="460" y="350" as="targetPoint" />
          </mxGeometry>
        </mxCell>
        <mxCell id="op2JBS9SiDomK1z1VzM1-55" value="" style="endArrow=classic;html=1;rounded=0;" edge="1" parent="1">
          <mxGeometry width="50" height="50" relative="1" as="geometry">
            <mxPoint x="360" y="480" as="sourcePoint" />
            <mxPoint x="360" y="220" as="targetPoint" />
          </mxGeometry>
        </mxCell>
        <mxCell id="op2JBS9SiDomK1z1VzM1-56" value="" style="endArrow=classic;html=1;rounded=0;entryX=0.338;entryY=1.053;entryDx=0;entryDy=0;entryPerimeter=0;" edge="1" parent="1" target="op2JBS9SiDomK1z1VzM1-5">
          <mxGeometry width="50" height="50" relative="1" as="geometry">
            <mxPoint x="120" y="480" as="sourcePoint" />
            <mxPoint x="460" y="350" as="targetPoint" />
          </mxGeometry>
        </mxCell>
        <mxCell id="op2JBS9SiDomK1z1VzM1-57" value="" style="endArrow=none;html=1;rounded=0;" edge="1" parent="1">
          <mxGeometry width="50" height="50" relative="1" as="geometry">
            <mxPoint x="240" y="560" as="sourcePoint" />
            <mxPoint x="240" y="480" as="targetPoint" />
          </mxGeometry>
        </mxCell>
        <mxCell id="op2JBS9SiDomK1z1VzM1-58" value="PyCharm" style="text;html=1;strokeColor=none;fillColor=none;align=center;verticalAlign=middle;whiteSpace=wrap;rounded=0;" vertex="1" parent="1">
          <mxGeometry x="210" y="560" width="60" height="30" as="geometry" />
        </mxCell>
        <mxCell id="op2JBS9SiDomK1z1VzM1-59" value="" style="endArrow=classic;html=1;rounded=0;entryX=0.5;entryY=0;entryDx=0;entryDy=0;" edge="1" parent="1" target="op2JBS9SiDomK1z1VzM1-12">
          <mxGeometry width="50" height="50" relative="1" as="geometry">
            <mxPoint x="740" as="sourcePoint" />
            <mxPoint x="530" y="200" as="targetPoint" />
          </mxGeometry>
        </mxCell>
        <mxCell id="op2JBS9SiDomK1z1VzM1-61" value="Программа методика испытаний" style="text;html=1;strokeColor=none;fillColor=none;align=center;verticalAlign=middle;whiteSpace=wrap;rounded=0;" vertex="1" parent="1">
          <mxGeometry x="710" y="-40" width="60" height="30" as="geometry" />
        </mxCell>
        <mxCell id="op2JBS9SiDomK1z1VzM1-62" value="" style="endArrow=classic;html=1;rounded=0;entryX=0.5;entryY=0;entryDx=0;entryDy=0;" edge="1" parent="1" target="op2JBS9SiDomK1z1VzM1-14">
          <mxGeometry width="50" height="50" relative="1" as="geometry">
            <mxPoint x="940" as="sourcePoint" />
            <mxPoint x="530" y="190" as="targetPoint" />
          </mxGeometry>
        </mxCell>
        <mxCell id="op2JBS9SiDomK1z1VzM1-64" value="ГОСТы" style="text;html=1;strokeColor=none;fillColor=none;align=center;verticalAlign=middle;whiteSpace=wrap;rounded=0;" vertex="1" parent="1">
          <mxGeometry x="910" y="-40" width="60" height="30" as="geometry" />
        </mxCell>
      </root>
    </mxGraphModel>
  </diagram>
</mxfile>
